<svg width="24" height="24" viewBox="0 0 24 24" fill="none" xmlns="http://www.w3.org/2000/svg">
<path d="M5.99996 10C5.99996 10.4179 6.03221 10.8282 6.09436 11.2288C6.58136 11.0799 7.09736 11 7.63158 11C10.5965 11 13 13.4624 13 16.5C13 16.9864 12.9384 17.4581 12.8227 17.9073C13.2237 17.9683 13.6344 18 14.0526 18C15.0524 18 16.0097 17.819 16.893 17.4881C17.0823 17.4172 17.177 17.3817 17.2511 17.3661C17.3245 17.3507 17.3763 17.3452 17.4512 17.3448C17.527 17.3443 17.6101 17.3565 17.7765 17.3809L20.9617 17.8478C21.3146 17.8995 21.4911 17.9254 21.6211 17.8695C21.735 17.8205 21.8266 17.731 21.8782 17.6182C21.9371 17.4895 21.9153 17.3125 21.8717 16.9585L21.4692 13.6883C21.4493 13.5272 21.4394 13.4466 21.4411 13.3735C21.4428 13.301 21.4489 13.2512 21.4646 13.1804C21.4804 13.109 21.5154 13.0175 21.5852 12.8345C21.9213 11.9535 22.1052 10.9981 22.1052 10C22.1052 5.58172 18.4999 2 14.0526 2C9.60525 2 5.99996 5.58172 5.99996 10Z" fill="#9747D6"/>
<path fill-rule="evenodd" clip-rule="evenodd" d="M12.8227 17.9073C12.9384 17.4581 13 16.9864 13 16.5C13 13.4624 10.5965 11 7.63158 11C7.09736 11 6.58136 11.0799 6.09436 11.2288C6.56986 15.8118 10.778 17.5907 12.8227 17.9073Z" fill="#9747D6"/>
<path d="M6.09436 11.2288C6.03221 10.8282 5.99996 10.4179 5.99996 10C5.99996 5.58172 9.60525 2 14.0526 2C18.4999 2 22.1052 5.58172 22.1052 10C22.1052 10.9981 21.9213 11.9535 21.5852 12.8345C21.5154 13.0175 21.4804 13.109 21.4646 13.1804C21.4489 13.2512 21.4428 13.301 21.4411 13.3735C21.4394 13.4466 21.4493 13.5272 21.4692 13.6883L21.8717 16.9585C21.9153 17.3125 21.9371 17.4895 21.8782 17.6182C21.8266 17.731 21.735 17.8205 21.6211 17.8695C21.4911 17.9254 21.3146 17.8995 20.9617 17.8478L17.7765 17.3809C17.6101 17.3565 17.527 17.3443 17.4512 17.3448C17.3763 17.3452 17.3245 17.3507 17.2511 17.3661C17.177 17.3817 17.0823 17.4172 16.893 17.4881C16.0097 17.819 15.0524 18 14.0526 18C13.6344 18 13.2237 17.9683 12.8227 17.9073M6.09436 11.2288C6.56986 15.8118 10.778 17.5907 12.8227 17.9073M6.09436 11.2288C6.58136 11.0799 7.09736 11 7.63158 11M12.8227 17.9073C12.9384 17.4581 13 16.9864 13 16.5M13 16.5C13 19.5376 10.5965 22 7.63158 22C7.01911 22 6.43059 21.8949 5.88227 21.7014C5.67416 21.6279 5.5701 21.5912 5.50011 21.5773C5.42641 21.5626 5.38652 21.5585 5.31137 21.558C5.24 21.5575 5.15827 21.5687 4.9948 21.591L2 22L2.61134 19.2383C2.65141 19.0573 2.67145 18.9668 2.67608 18.8867C2.68091 18.8031 2.67864 18.7567 2.66566 18.6739C2.65322 18.5947 2.61533 18.4787 2.53955 18.2467C2.36028 17.6979 2.26316 17.1106 2.26316 16.5C2.26316 13.4624 4.66668 11 7.63158 11M13 16.5C13 13.4624 10.5965 11 7.63158 11" stroke="#9747D6" stroke-width="1.5" stroke-linecap="round" stroke-linejoin="round"/>
</svg>
