<svg width="24" height="24" viewBox="0 0 24 24" fill="none" xmlns="http://www.w3.org/2000/svg">
<path fill-rule="evenodd" clip-rule="evenodd" d="M21.9724 7.01934C21.937 6.4208 21.8565 5.99818 21.673 5.63803C21.3854 5.07354 20.9265 4.6146 20.362 4.32698C19.7202 4 18.8802 4 17.2 4H6.8C5.11984 4 4.27976 4 3.63803 4.32698C3.07354 4.6146 2.6146 5.07354 2.32698 5.63803C2.14347 5.99818 2.06295 6.42081 2.02762 7.01934L9.14286 12L10.1649 12.7154C10.8261 13.1783 11.1567 13.4097 11.5163 13.4993C11.8339 13.5785 12.1661 13.5785 12.4837 13.4993C12.8433 13.4097 13.1739 13.1783 13.8351 12.7154L14.8571 12L21.9724 7.01934Z" fill="#9747D6"/>
<path d="M21.5 18L14.8571 12M14.8571 12L13.8351 12.7154M14.8571 12L21.9724 7.01934M9.14286 12L2.50003 18M9.14286 12L2.02762 7.01934M9.14286 12L10.1649 12.7154M2 7L2.02762 7.01934M10.1649 12.7154C10.8261 13.1783 11.1567 13.4097 11.5163 13.4993C11.8339 13.5785 12.1661 13.5785 12.4837 13.4993C12.8433 13.4097 13.1739 13.1783 13.8351 12.7154M10.1649 12.7154L2.02762 7.01934M13.8351 12.7154L21.9724 7.01934M22 7L21.9724 7.01934M21.9724 7.01934C21.937 6.4208 21.8565 5.99818 21.673 5.63803C21.3854 5.07354 20.9265 4.6146 20.362 4.32698C19.7202 4 18.8802 4 17.2 4H6.8C5.11984 4 4.27976 4 3.63803 4.32698C3.07354 4.6146 2.6146 5.07354 2.32698 5.63803C2.14347 5.99818 2.06295 6.42081 2.02762 7.01934M21.9724 7.01934C22 7.48729 22 8.06278 22 8.8V15.2C22 16.8802 22 17.7202 21.673 18.362C21.3854 18.9265 20.9265 19.3854 20.362 19.673C19.7202 20 18.8802 20 17.2 20H6.8C5.11984 20 4.27976 20 3.63803 19.673C3.07354 19.3854 2.6146 18.9265 2.32698 18.362C2 17.7202 2 16.8802 2 15.2V8.8C2 8.06278 2 7.48729 2.02762 7.01934" stroke="#9747D6" stroke-width="1.5" stroke-linecap="round" stroke-linejoin="round"/>
</svg>
