<svg width="16" height="16" viewBox="0 0 16 16" fill="none" xmlns="http://www.w3.org/2000/svg">
<path d="M7.99982 6.00015V8.66682M7.99982 11.3335H8.00648M7.0767 2.59464L1.59344 12.0657C1.2893 12.591 1.13723 12.8537 1.15971 13.0693C1.17931 13.2573 1.27783 13.4282 1.43073 13.5394C1.60604 13.6668 1.90954 13.6668 2.51656 13.6668H13.4831C14.0901 13.6668 14.3936 13.6668 14.5689 13.5394C14.7218 13.4282 14.8203 13.2573 14.8399 13.0693C14.8624 12.8537 14.7103 12.591 14.4062 12.0657L8.92294 2.59463C8.61989 2.07119 8.46837 1.80947 8.27068 1.72157C8.09824 1.64489 7.90139 1.64489 7.72895 1.72157C7.53126 1.80947 7.37974 2.07119 7.0767 2.59464Z" stroke="#15803C" stroke-width="1.5" stroke-linecap="round" stroke-linejoin="round"/>
</svg>
